<svg width="386" height="500" viewBox="0 0 386 500" fill="none" xmlns="http://www.w3.org/2000/svg">
<path d="M182.397 22.398V5C182.397 3.67392 182.924 2.40215 183.861 1.46447C184.799 0.526784 186.071 0 187.397 0C188.723 0 189.995 0.526784 190.933 1.46447C191.87 2.40215 192.397 3.67392 192.397 5V22.398C192.397 23.7241 191.87 24.9959 190.933 25.9335C189.995 26.8712 188.723 27.398 187.397 27.398C186.071 27.398 184.799 26.8712 183.861 25.9335C182.924 24.9959 182.397 23.7241 182.397 22.398ZM268.365 53.126C269.064 53.1268 269.756 52.9805 270.396 52.6968C271.035 52.4131 271.607 51.9982 272.076 51.479L283.827 38.475C284.71 37.4903 285.167 36.1956 285.098 34.8746C285.029 33.5536 284.439 32.3139 283.457 31.4269C282.476 30.54 281.183 30.0781 279.862 30.1424C278.541 30.2067 277.299 30.7919 276.408 31.77L264.657 44.774C264.008 45.4916 263.582 46.382 263.429 47.3372C263.276 48.2925 263.404 49.2715 263.796 50.1557C264.189 51.0398 264.829 51.7912 265.64 52.3186C266.451 52.846 267.398 53.1258 268.365 53.126ZM309.617 130.359L329.519 130.392H329.527C330.853 130.393 332.125 129.867 333.064 128.93C334.002 127.993 334.53 126.722 334.531 125.396C334.532 124.07 334.006 122.798 333.069 121.859C332.132 120.921 330.861 120.393 329.535 120.392L309.633 120.359H309.625C308.299 120.358 307.027 120.884 306.088 121.821C305.15 122.758 304.622 124.029 304.621 125.355C304.62 126.681 305.146 127.953 306.083 128.892C307.02 129.83 308.291 130.358 309.617 130.359ZM102.718 51.478C103.186 51.9975 103.759 52.4126 104.398 52.6963C105.038 52.9801 105.73 53.1261 106.429 53.125C107.396 53.1244 108.342 52.8433 109.153 52.3158C109.964 51.7883 110.604 51.0371 110.997 50.1531C111.389 49.2691 111.517 48.2903 111.364 47.3352C111.211 46.3801 110.785 45.4898 110.137 44.772L98.385 31.768C97.4943 30.7899 96.2524 30.2047 94.9312 30.1404C93.6099 30.0761 92.317 30.538 91.3356 31.4249C90.3542 32.3119 89.7642 33.5516 89.695 34.8726C89.6257 36.1936 90.0827 37.4883 90.966 38.473L102.718 51.478ZM45.265 130.392H45.273L65.175 130.359C66.4838 130.332 67.7297 129.793 68.6453 128.857C69.5609 127.921 70.0731 126.664 70.0721 125.355C70.071 124.046 69.5567 122.79 68.6397 121.855C67.7226 120.921 66.4758 120.384 65.167 120.359H65.159L45.257 120.392C43.9482 120.419 42.7023 120.958 41.7867 121.894C40.8711 122.83 40.3589 124.087 40.3599 125.396C40.361 126.705 40.8752 127.961 41.7923 128.896C42.7094 129.83 43.9562 130.367 45.265 130.392ZM381.246 225.036L273.084 412.379C272.761 412.939 272.332 413.431 271.822 413.827L243.196 436.076C242.094 452.684 241.878 472.142 242.558 493.973C242.579 494.64 242.466 495.304 242.227 495.926C241.987 496.549 241.625 497.117 241.163 497.597C240.7 498.078 240.146 498.461 239.533 498.724C238.92 498.987 238.261 499.125 237.594 499.129L109.328 500.001H109.294C108.614 500.001 107.942 499.862 107.318 499.594C106.694 499.325 106.131 498.932 105.664 498.438C105.196 497.945 104.835 497.361 104.601 496.723C104.366 496.086 104.265 495.407 104.302 494.728C104.529 490.594 104.635 464.418 104.539 462.484C104.053 456.385 102.628 452.347 100.311 450.567C96.443 447.596 87.831 449.176 77.859 451.006C71.955 452.089 65.262 453.318 58.003 453.945C46.796 454.914 36.193 455.282 29.618 449.251C25.492 445.466 23.486 439.703 23.486 431.633C23.486 431.419 23.5 431.204 23.528 430.991C23.646 430.078 23.771 429.17 23.893 428.276C24.323 425.147 24.967 420.453 24.58 419.011C21.695 413.755 21.979 407.735 22.861 405.118C22.924 404.93 22.999 404.746 23.084 404.566C23.976 402.691 25.101 401.088 26.258 399.746C24.767 398.621 23.461 397.222 22.489 395.359C20.349 391.255 20.599 386.591 23.31 380.293C24.087 376.468 23.799 375.412 23.433 374.665C22.001 371.744 19.075 370.791 14.418 369.48C9.012 367.958 1.607 365.873 0.443003 356.98C-0.521997 349.614 2.603 344.884 5.91101 339.876C6.32401 339.251 6.751 338.604 7.19 337.924C18.391 320.78 24.145 308.833 24.308 302.39C24.412 298.348 22.829 296.287 20.433 293.17C16.857 288.517 12.408 282.726 14.541 270.388C15.52 264.74 17.783 256.632 20.179 248.048C23.117 237.516 27.142 223.092 26.684 218.925C26.352 215.908 25.082 213.567 23.738 211.089C20.857 205.777 17.271 199.165 24.734 188.034C24.812 187.918 24.894 187.806 24.981 187.698C38.463 170.827 58.849 157.504 84.093 148.994C83.713 145.18 83.502 141.19 83.502 136.989C83.502 107.993 94.86 83.622 116.349 66.511C135.2 51.5 160.495 43.234 187.578 43.234C214.661 43.234 239.956 51.501 258.807 66.511C280.295 83.622 291.653 107.993 291.653 136.989C291.653 163.604 283.497 182.039 273.883 197.324C283.306 210.907 290.007 225.926 293.875 242.075L323.095 191.464C327.563 183.725 334.806 178.181 343.49 175.855C352.173 173.527 361.219 174.708 368.957 179.176C376.696 183.644 382.239 190.886 384.565 199.57C386.891 208.254 385.712 217.298 381.245 225.037L381.246 225.036ZM215.537 444.908L225.531 437.14L217.267 432.369L215.537 444.908ZM259.817 410.493L223.201 389.353L218.742 421.674L234.055 430.515L259.817 410.493ZM242.179 388.763L328.311 239.576L312.227 230.29L226.094 379.476L242.179 388.763ZM358.056 245.202L364.808 233.507L323.979 209.934L317.227 221.629L358.056 245.202ZM93.504 136.988C93.504 170.004 107.01 188.847 120.072 207.07C131.314 222.754 141.956 237.616 142.957 259.558H166.406V197.187C166.406 195.612 166.389 194.075 166.354 192.569C151.865 187.554 140.108 177.385 133.695 163.635C126.636 148.502 126.466 135.181 133.239 128.001C137.35 123.644 143.413 122.476 149.459 124.876C161.25 129.56 173.771 147.789 176.042 184.884C179.741 185.661 183.605 186.065 187.579 186.065C191.553 186.065 195.415 185.661 199.115 184.884C201.386 147.788 213.908 129.559 225.698 124.876C231.745 122.475 237.807 123.643 241.918 128.001C248.691 135.181 248.521 148.502 241.462 163.635C235.049 177.384 223.292 187.553 208.803 192.569C208.768 194.108 208.75 195.647 208.751 197.186V259.557H232.201C233.203 237.615 243.844 222.753 255.086 207.069C268.148 188.846 281.654 170.004 281.654 136.987C281.654 79.442 232.888 53.232 187.579 53.232C142.27 53.232 93.503 79.441 93.503 136.987L93.504 136.988ZM166.082 324.405C166.082 329.006 169.825 332.749 174.427 332.749H200.733C205.334 332.749 209.077 329.006 209.077 324.405V319.71H166.082V324.405ZM219.681 309.71C226.538 309.71 232.117 304.131 232.117 297.274V294.634H143.042V297.274C143.042 304.131 148.621 309.71 155.479 309.71H219.682H219.681ZM232.117 269.557H143.042V284.634H232.117V269.557ZM176.407 197.186V259.557H198.753V197.186C198.753 196.496 198.755 195.812 198.762 195.133C191.518 196.363 183.642 196.363 176.398 195.133C176.404 195.813 176.408 196.496 176.408 197.186H176.407ZM232.401 159.408C238.206 146.962 237.711 138.112 234.646 134.863C233.881 134.052 232.934 133.646 231.813 133.646C231.079 133.646 230.271 133.821 229.391 134.17C223.181 136.637 212.155 149.686 209.393 181.59C219.569 177.092 227.741 169.4 232.401 159.408ZM145.768 134.17C144.889 133.821 144.08 133.646 143.346 133.646C142.226 133.646 141.278 134.052 140.513 134.863C137.448 138.113 136.952 146.963 142.758 159.408C147.419 169.4 155.59 177.092 165.766 181.59C163.004 149.685 151.978 136.637 145.768 134.17ZM232.728 444.212L211.974 460.343C211.189 460.954 210.24 461.316 209.248 461.384C208.256 461.452 207.266 461.223 206.405 460.725C205.544 460.228 204.851 459.486 204.414 458.593C203.977 457.7 203.816 456.697 203.952 455.712L214.311 380.623C214.399 379.983 214.611 379.366 214.934 378.806L286.238 255.304C285.971 253.367 285.651 251.438 285.279 249.518C282.219 233.946 276.373 219.45 267.881 206.326C266.339 208.525 264.783 210.715 263.214 212.895C251.894 228.688 242.117 242.328 242.117 262.945V297.274C242.117 309.645 232.052 319.71 219.681 319.71H219.077V324.405C219.077 334.52 210.848 342.749 200.733 342.749H174.427C164.312 342.749 156.082 334.52 156.082 324.405V319.71H155.478C143.106 319.71 133.041 309.645 133.041 297.274V262.945C133.041 242.328 123.264 228.689 111.944 212.895C101.579 198.435 90.143 182.472 85.565 159.058C63.029 166.935 44.907 178.862 32.927 193.774C28.965 199.748 30.018 201.69 32.53 206.32C34.112 209.236 36.079 212.864 36.626 217.831C37.251 223.509 34.469 234.049 29.813 250.734C27.487 259.069 25.29 266.942 24.396 272.093C23.01 280.108 25.255 283.03 28.364 287.075C31.098 290.633 34.5 295.061 34.306 302.643C34.086 311.32 28.31 323.881 15.578 343.369C15.135 344.056 14.687 344.734 14.256 345.387C11.143 350.099 9.898 352.153 10.36 355.68C10.622 357.68 11.634 358.305 17.13 359.852C22.115 361.256 28.942 363.179 32.415 370.262C34.31 374.129 34.04 377.951 32.991 382.864C32.918 383.204 32.81 383.535 32.669 383.853C31.172 387.216 30.731 389.531 31.358 390.734C32.019 392.001 34.33 392.994 37.006 394.145C37.8136 394.492 38.5153 395.046 39.0405 395.751C39.5658 396.456 39.8959 397.287 39.9976 398.16C40.0993 399.033 39.969 399.918 39.6199 400.724C39.2708 401.531 38.7151 402.231 38.009 402.755C37.909 402.829 37.75 402.94 37.54 403.083C36.602 403.721 33.826 405.608 32.302 408.487C32.167 409.358 32.129 412.103 33.429 414.343C33.5 414.466 33.566 414.592 33.627 414.721C35.346 418.369 34.664 423.34 33.8 429.633C33.695 430.396 33.589 431.168 33.487 431.945C33.526 436.88 34.472 440.131 36.378 441.879C39.597 444.833 47.006 444.855 57.143 443.98C63.928 443.394 70.371 442.211 76.056 441.168C88.881 438.815 99.01 436.956 106.403 442.634C111.19 446.31 113.767 452.393 114.514 461.775C114.63 463.469 114.569 480.669 114.421 489.964L232.418 489.162C232.004 472.741 232.11 457.691 232.727 444.21L232.728 444.212ZM353.057 253.862L336.973 244.576L250.841 393.763L266.925 403.049L353.057 253.862ZM374.909 202.156C373.273 196.053 369.385 190.967 363.959 187.834C358.533 184.701 352.185 183.877 346.08 185.512C339.976 187.148 334.89 191.036 331.758 196.463L328.98 201.274L369.809 224.847L372.587 220.035C375.719 214.609 376.544 208.26 374.909 202.156Z" fill="url(#paint0_linear_3_3)"/>
<defs>
<linearGradient id="paint0_linear_3_3" x1="193" y1="500" x2="193" y2="0" gradientUnits="userSpaceOnUse">
<stop stop-color="#8D3FFF"/>
<stop offset="1" stop-color="#00B4D1"/>
</linearGradient>
</defs>
</svg>
