<svg width="512" height="512" viewBox="0 0 512 512" fill="none" xmlns="http://www.w3.org/2000/svg">
<rect width="512" height="512" fill="#1E1E1E"/>
<g clip-path="url(#clip0_0_1)">
<path d="M0 0H512V512H0V0Z" fill="#FFDF00"/>
<path d="M343.934 400.002C354.247 416.841 367.665 429.218 391.396 429.218C411.331 429.218 424.066 419.254 424.066 405.487C424.066 388.989 410.982 383.146 389.039 373.548L377.011 368.387C342.292 353.596 319.228 335.066 319.228 295.894C319.228 259.81 346.722 232.341 389.689 232.341C420.279 232.341 442.271 242.987 458.118 270.863L420.653 294.919C412.404 280.128 403.505 274.301 389.689 274.301C375.597 274.301 366.665 283.241 366.665 294.919C366.665 309.353 375.605 315.196 396.247 324.136L408.275 329.288C449.154 346.818 472.234 364.689 472.234 404.869C472.234 448.186 438.206 471.917 392.508 471.917C347.826 471.917 318.959 450.624 304.834 422.716L343.934 400.002ZM173.974 404.171C181.532 417.581 188.408 428.918 204.938 428.918C220.745 428.918 230.717 422.733 230.717 398.686V235.089H278.829V399.335C278.829 449.153 249.621 471.828 206.986 471.828C168.464 471.828 146.156 451.892 134.81 427.881L173.974 404.171Z" fill="black"/>
</g>
<defs>
<clipPath id="clip0_0_1">
<rect width="512" height="512" fill="white"/>
</clipPath>
</defs>
</svg>
