<svg width="512" height="512" viewBox="0 0 512 512" fill="none" xmlns="http://www.w3.org/2000/svg">
<path d="M464.969 211.188C463.954 211.188 462.95 210.988 462.012 210.6C461.075 210.212 460.223 209.643 459.506 208.925C458.788 208.208 458.219 207.356 457.831 206.419C457.443 205.481 457.243 204.477 457.243 203.462V75.172C457.243 73.1229 458.057 71.1578 459.506 69.7089C460.955 68.26 462.92 67.446 464.969 67.446C467.018 67.446 468.983 68.26 470.432 69.7089C471.881 71.1578 472.695 73.1229 472.695 75.172V203.462C472.695 204.477 472.495 205.481 472.107 206.419C471.719 207.356 471.15 208.208 470.432 208.925C469.715 209.643 468.863 210.212 467.926 210.6C466.988 210.988 465.984 211.188 464.969 211.188ZM305.66 410.845C304.054 410.846 302.488 410.346 301.179 409.416C299.87 408.486 298.884 407.171 298.357 405.654C297.83 404.137 297.788 402.494 298.238 400.952C298.688 399.411 299.608 398.048 300.868 397.053L458.712 265.671C460.323 264.43 462.358 263.873 464.376 264.123C466.395 264.373 468.233 265.408 469.493 267.004C470.753 268.6 471.333 270.629 471.108 272.65C470.882 274.671 469.868 276.521 468.287 277.8L310.443 409.183C309.082 410.261 307.396 410.846 305.66 410.845ZM443.459 21.428H76.889C74.8399 21.428 72.8748 20.614 71.4259 19.1651C69.977 17.7162 69.163 15.7511 69.163 13.702C69.163 11.6529 69.977 9.6878 71.4259 8.23889C72.8748 6.78998 74.8399 5.976 76.889 5.976H443.459C445.508 5.976 447.473 6.78998 448.922 8.23889C450.371 9.6878 451.185 11.6529 451.185 13.702C451.185 15.7511 450.371 17.7162 448.922 19.1651C447.473 20.614 445.508 21.428 443.459 21.428Z" fill="#FFE177"/>
<path d="M435.973 251.558C434.442 251.558 432.946 251.102 431.676 250.247L369.733 209.878C368.067 208.722 366.922 206.957 366.545 204.964C366.169 202.971 366.591 200.91 367.721 199.226C368.85 197.541 370.597 196.368 372.584 195.961C374.57 195.553 376.638 195.942 378.34 197.045L440.283 237.414C441.659 238.337 442.702 239.678 443.258 241.239C443.814 242.8 443.853 244.498 443.37 246.083C442.887 247.668 441.907 249.056 440.575 250.042C439.243 251.028 437.63 251.559 435.973 251.558ZM349.38 118.336C348.073 118.338 346.787 118.007 345.642 117.376C344.497 116.744 343.532 115.833 342.836 114.726C342.295 113.868 341.929 112.911 341.758 111.911C341.586 110.911 341.614 109.887 341.839 108.897C342.064 107.908 342.481 106.972 343.067 106.144C343.654 105.316 344.397 104.612 345.256 104.071L439.341 45.305C441.074 44.2499 443.153 43.9189 445.128 44.3833C447.103 44.8477 448.816 46.0703 449.897 47.7872C450.979 49.504 451.341 51.5772 450.907 53.5592C450.473 55.5411 449.276 57.2727 447.576 58.38L353.491 117.146C352.261 117.924 350.835 118.336 349.38 118.336Z" fill="#FFD15B"/>
<path d="M47.031 211.188C48.0456 211.188 49.0504 210.988 49.9878 210.6C50.9252 210.212 51.777 209.643 52.4944 208.925C53.2119 208.208 53.7809 207.356 54.1692 206.419C54.5574 205.481 54.7571 204.477 54.757 203.462V75.172C54.757 73.1229 53.943 71.1578 52.4941 69.7089C51.0452 68.26 49.0801 67.446 47.031 67.446C44.9819 67.446 43.0168 68.26 41.5679 69.7089C40.119 71.1578 39.305 73.1229 39.305 75.172V203.462C39.3049 204.477 39.5046 205.481 39.8928 206.419C40.2811 207.356 40.8502 208.208 41.5676 208.925C42.2851 209.643 43.1368 210.212 44.0742 210.6C45.0117 210.988 46.0164 211.188 47.031 211.188ZM206.34 410.845C207.946 410.846 209.512 410.346 210.821 409.416C212.13 408.486 213.116 407.171 213.643 405.654C214.17 404.137 214.212 402.494 213.762 400.952C213.312 399.411 212.392 398.048 211.132 397.053L53.288 265.672C51.6771 264.431 49.6419 263.875 47.6236 264.124C45.6053 264.374 43.7668 265.409 42.5067 267.005C41.2466 268.601 40.6666 270.63 40.8924 272.651C41.1182 274.672 42.1317 276.522 43.713 277.801L201.557 409.183C202.918 410.261 204.604 410.846 206.34 410.845Z" fill="#FFE177"/>
<path d="M76.027 251.558C77.507 251.558 79.003 251.133 80.324 250.247L142.267 209.878C143.933 208.722 145.078 206.957 145.455 204.964C145.831 202.971 145.409 200.91 144.279 199.226C143.15 197.541 141.403 196.368 139.416 195.961C137.43 195.553 135.362 195.942 133.66 197.045L71.717 237.414C70.3409 238.337 69.298 239.678 68.7422 241.239C68.1864 242.8 68.1471 244.498 68.6301 246.083C69.1131 247.668 70.0928 249.056 71.4247 250.042C72.7565 251.028 74.37 251.559 76.027 251.558ZM162.62 118.336C163.927 118.338 165.213 118.007 166.358 117.376C167.503 116.744 168.468 115.833 169.164 114.726C169.705 113.868 170.071 112.911 170.243 111.911C170.414 110.911 170.386 109.887 170.162 108.897C169.937 107.908 169.52 106.972 168.933 106.144C168.347 105.316 167.604 104.612 166.745 104.071L72.66 45.305C70.9269 44.2499 68.8484 43.9189 66.8733 44.3833C64.8982 44.8477 63.185 46.0703 62.1037 47.7872C61.0224 49.504 60.6598 51.5772 61.0941 53.5592C61.5284 55.5411 62.7248 57.2727 64.425 58.38L158.51 117.146C159.74 117.924 161.165 118.337 162.62 118.336Z" fill="#FFD15B"/>
<path d="M232.114 512C208.068 512 188.506 492.437 188.506 468.392V420.621C188.506 396.575 208.069 377.013 232.114 377.013H244.662C268.708 377.013 302.078 396.576 302.078 420.621V468.392C302.078 492.438 268.708 512 244.662 512H232.114Z" fill="#D9B1EE"/>
<path d="M279.886 377.013H240.208C264.254 377.013 283.816 396.576 283.816 420.621V468.392C283.816 492.438 264.253 512 240.208 512H279.886C303.932 512 323.495 492.437 323.495 468.392V420.621C323.494 396.575 303.931 377.013 279.886 377.013Z" fill="#CB97E7"/>
<path d="M461.998 278.632L441.082 278.634C433.516 278.634 427.383 272.501 427.383 264.935V217.164C427.383 209.598 433.516 203.465 441.082 203.465L461.998 203.463C469.564 203.463 483.647 209.596 483.647 217.162V264.933C483.646 272.498 469.563 278.632 461.998 278.632Z" fill="#6BD9E7"/>
<path d="M502.556 217.161V264.93C502.556 272.502 496.416 278.631 488.855 278.631H461.998C469.57 278.631 475.699 272.501 475.699 264.93V217.161C475.699 209.599 469.569 203.46 461.998 203.46H488.855C496.416 203.46 502.556 209.6 502.556 217.161Z" fill="#2ED1E2"/>
<path d="M232.115 484.185C223.407 484.185 216.321 477.1 216.321 468.391V420.621C216.321 411.912 223.406 404.827 232.115 404.827H279.885C280.213 404.827 280.54 404.857 280.863 404.877C286.874 407.618 289.509 412.241 289.509 420.621V468.391C289.509 476.77 288.059 480.929 280.863 484.135C280.539 484.155 280.214 484.185 279.885 484.185H232.115Z" fill="#978ECB"/>
<path d="M280.864 404.877C282.817 409.896 283.819 415.235 283.817 420.621V468.392C283.819 473.778 282.817 479.117 280.864 484.136C289.116 483.626 295.679 476.77 295.679 468.392V420.622C295.679 412.242 289.116 405.386 280.864 404.877Z" fill="#8379C1"/>
<path d="M304.186 185.528C304.186 183.262 286.667 138.027 276.341 125.486C274.883 123.716 256 104.505 242.011 102.46C237.715 104.15 234.666 108.332 234.666 113.236V121.024C234.666 123.321 233.296 125.371 231.194 126.288C227.069 128.109 223.155 130.375 219.522 133.046C217.678 134.406 215.206 134.571 213.217 133.427L206.459 129.523C200.917 126.329 193.839 128.225 190.635 133.767L180.89 150.641C177.686 156.183 179.592 163.271 185.124 166.465L191.892 170.369C193.88 171.523 194.962 173.748 194.715 176.025C194.464 178.259 194.336 180.504 194.334 182.752C194.334 185.029 194.468 187.275 194.715 189.489C194.962 191.766 193.881 193.991 191.892 195.134L185.124 199.049C179.592 202.243 177.686 209.33 180.89 214.862L190.635 231.746C193.839 237.288 200.916 239.184 206.459 235.99L213.217 232.086C215.205 230.932 217.678 231.107 219.522 232.467C223.155 235.138 227.069 237.404 231.194 239.225C233.296 240.142 234.666 242.192 234.666 244.489V252.277C234.666 255.471 235.964 258.376 238.066 260.467C250.817 260.715 264.103 250.718 264.103 250.718C279.89 241.799 304.186 187.805 304.186 185.528ZM228.7 182.752C228.7 167.681 240.918 155.452 256 155.452C271.082 155.452 283.3 167.68 283.3 182.752C283.3 197.834 271.082 210.052 256 210.052C240.918 210.052 228.7 197.834 228.7 182.752Z" fill="#9FACBA"/>
<path d="M331.11 214.863L321.365 231.747C318.161 237.289 311.084 239.185 305.541 235.991L298.783 232.087C296.795 230.933 294.322 231.108 292.478 232.468C288.845 235.139 284.931 237.405 280.806 239.226C278.704 240.143 277.324 242.193 277.324 244.49V252.278C277.324 258.675 272.142 263.857 265.745 263.857H246.254C244.733 263.858 243.227 263.56 241.821 262.978C240.416 262.397 239.139 261.544 238.064 260.468C268.846 247.004 290.366 216.294 290.366 180.547C290.366 146.345 270.669 116.758 242.01 102.47V102.46C243.362 101.93 244.802 101.657 246.254 101.656H265.745C272.142 101.656 277.324 106.838 277.324 113.235V121.023C277.324 123.32 278.704 125.37 280.806 126.287C284.931 128.108 288.845 130.374 292.478 133.045C294.322 134.405 296.794 134.57 298.783 133.426L305.541 129.522C311.083 126.328 318.161 128.224 321.365 133.766L331.11 150.64C334.304 156.182 332.408 163.27 326.866 166.464L320.108 170.368C318.12 171.522 317.028 173.747 317.285 176.024C317.532 178.239 317.656 180.485 317.656 182.751C317.656 185.028 317.532 187.274 317.285 189.488C317.027 191.765 318.119 193.99 320.108 195.133L326.866 199.048C332.408 202.243 334.304 209.33 331.11 214.863Z" fill="#8D9CA8"/>
<path d="M461.998 75.172L441.082 75.174C433.516 75.174 427.383 69.041 427.383 61.475V13.704C427.383 6.13799 433.516 0.00499072 441.082 0.00499072L461.998 0.00299072C469.564 0.00299072 483.647 6.13599 483.647 13.702V61.473C483.646 69.039 469.563 75.172 461.998 75.172Z" fill="#A6E7F0"/>
<path d="M502.556 13.701V61.47C502.556 69.042 496.416 75.171 488.855 75.171H461.998C469.57 75.171 475.699 69.041 475.699 61.47V13.701C475.699 6.14 469.569 0 461.998 0H488.855C496.416 0 502.556 6.14 502.556 13.701Z" fill="#6BD9E7"/>
<path d="M44.06 75.172L23.144 75.174C15.578 75.174 9.44501 69.041 9.44501 61.475V13.704C9.44501 6.13801 15.578 0.00501416 23.144 0.00501416L44.06 0.00201416C51.626 0.00201416 65.709 6.13501 65.709 13.701V61.472C65.708 69.039 51.626 75.172 44.06 75.172Z" fill="#978ECB"/>
<path d="M84.618 13.701V61.47C84.618 69.042 78.478 75.171 70.917 75.171H44.06C51.632 75.171 57.761 69.041 57.761 61.47V13.701C57.761 6.14 51.631 0 44.06 0H70.917C78.478 0 84.618 6.14 84.618 13.701Z" fill="#8379C1"/>
<path d="M44.06 278.632L23.144 278.634C15.578 278.634 9.44501 272.501 9.44501 264.935V217.164C9.44501 209.598 15.578 203.465 23.144 203.465L44.06 203.463C51.626 203.463 65.709 209.596 65.709 217.162V264.933C65.708 272.498 51.626 278.632 44.06 278.632Z" fill="#D9B1EE"/>
<path d="M84.618 217.161V264.93C84.618 272.502 78.478 278.631 70.917 278.631H44.06C51.632 278.631 57.761 272.501 57.761 264.93V217.161C57.761 209.599 51.631 203.46 44.06 203.46H70.917C78.478 203.46 84.618 209.599 84.618 217.161Z" fill="#CB97E7"/>
<path d="M356.258 106.882C340.115 85.6 317.192 69.734 291.711 62.207C287.611 60.997 283.321 63.336 282.112 67.428C280.903 71.52 283.241 75.818 287.332 77.027C309.675 83.627 329.781 97.546 343.946 116.22C358.577 135.509 366.31 158.54 366.31 182.822C366.31 207.104 358.577 230.132 343.946 249.419C333.282 263.476 319.25 274.835 303.432 282.409L310.632 264.799C311.373 262.909 311.34 260.804 310.541 258.938C309.742 257.072 308.241 255.596 306.362 254.827C304.483 254.059 302.378 254.061 300.5 254.833C298.623 255.604 297.125 257.084 296.329 258.951L282.37 293.095C281.07 296.712 281.99 301.115 286.598 303.171L320.742 317.13C322.639 317.905 324.766 317.894 326.655 317.102C328.544 316.309 330.042 314.798 330.818 312.902C331.593 311.005 331.584 308.878 330.791 306.988C329.998 305.099 328.487 303.602 326.59 302.826L310.397 296.206C328.302 287.572 344.18 274.683 356.259 258.759C372.945 236.764 381.765 210.505 381.765 182.823C381.764 155.141 372.944 128.881 356.258 106.882ZM225.402 61.549L191.258 47.59C189.366 46.8378 187.253 46.8629 185.379 47.6599C183.505 48.4569 182.022 49.9614 181.251 51.8463C180.481 53.7312 180.485 55.844 181.264 57.7255C182.043 59.6071 183.533 61.1051 185.41 61.894L202.656 68.945C184.323 77.579 168.056 90.647 155.741 106.883C139.055 128.881 130.236 155.141 130.236 182.824C130.236 210.506 139.056 236.764 155.742 258.76C171.884 280.039 194.807 295.903 220.29 303.43C221.02 303.646 221.757 303.748 222.482 303.748C224.34 303.749 226.137 303.079 227.542 301.863C228.947 300.647 229.866 298.965 230.132 297.125C230.398 295.286 229.991 293.413 228.988 291.848C227.984 290.284 226.451 289.134 224.668 288.609C202.325 282.009 182.218 268.091 168.054 249.42C153.423 230.133 145.69 207.105 145.69 182.823C145.69 158.541 153.423 135.51 168.055 116.221C178.613 102.301 192.475 91.029 208.101 83.455L201.369 99.921C200.973 100.862 200.768 101.873 200.766 102.894C200.763 103.915 200.962 104.926 201.353 105.87C201.743 106.813 202.317 107.67 203.041 108.39C203.764 109.111 204.623 109.681 205.568 110.067C206.514 110.453 207.526 110.649 208.547 110.641C209.568 110.634 210.577 110.425 211.517 110.025C212.457 109.625 213.308 109.044 214.021 108.313C214.734 107.582 215.296 106.718 215.673 105.769L228.445 74.529C230.777 72.104 231.175 64.142 225.402 61.549Z" fill="#A6E7F0"/>
</svg>
