<svg width="512" height="512" viewBox="0 0 512 512" fill="none" xmlns="http://www.w3.org/2000/svg">
<path d="M456 354.8V456H56V354.8C56 342.528 59.5285 330.514 66.165 320.191L112.4 248.262C117.302 240.636 123.769 234.138 131.372 229.199C138.974 224.26 147.54 220.993 156.5 219.614L232 208H280L355.493 219.614C364.453 220.993 373.019 224.26 380.621 229.199C388.224 234.138 394.691 240.636 399.593 248.262L445.831 320.188C452.469 330.512 455.999 342.526 456 354.8Z" fill="#3397E8"/>
<path d="M176 328H224C228.243 328 232.313 329.686 235.314 332.686C238.314 335.687 240 339.757 240 344V376C240 380.243 238.314 384.313 235.314 387.314C232.313 390.314 228.243 392 224 392H176V328Z" fill="#F0C6A4"/>
<path d="M232 168H280V216C280 220.243 278.314 224.313 275.314 227.314C272.313 230.314 268.243 232 264 232H248C243.757 232 239.687 230.314 236.686 227.314C233.686 224.313 232 220.243 232 216V168Z" fill="#DEB797"/>
<path d="M32 456H480V488H32V456Z" fill="#3397E8"/>
<path d="M464 456H48C48 456 41.43 404.45 64 376C64 376 208 368 256 456C312 368 448 376 448 376C470.57 404.45 464 456 464 456Z" fill="#E9EEF2"/>
<path d="M224 328L195.543 207.059C194.593 203.019 192.11 199.507 188.618 197.263C185.127 195.02 180.901 194.22 176.831 195.034L168.454 196.709C166.331 197.134 164.316 197.985 162.531 199.211C160.747 200.437 159.23 202.013 158.072 203.842C156.914 205.672 156.14 207.718 155.796 209.855C155.451 211.993 155.545 214.178 156.07 216.279L184 328H224Z" fill="#596063"/>
<path d="M224 328H184L163.13 244.52L202.66 237.33L224 328Z" fill="#A3D4F7"/>
<path d="M202.66 237.33L163.13 244.52L156.07 216.28C155.545 214.18 155.451 211.995 155.795 209.857C156.139 207.72 156.913 205.674 158.07 203.845C159.228 202.015 160.745 200.439 162.529 199.213C164.313 197.987 166.327 197.135 168.45 196.71L176.83 195.03C180.9 194.217 185.126 195.017 188.617 197.262C192.108 199.506 194.591 203.02 195.54 207.06L202.66 237.33Z" fill="#D0D2D4"/>
<path d="M200 72H312V152C312 160.487 308.629 168.626 302.627 174.627C296.626 180.629 288.487 184 280 184H232C223.513 184 215.374 180.629 209.373 174.627C203.371 168.626 200 160.487 200 152V72Z" fill="#F0C6A4"/>
<path d="M168 24H280C288.487 24 296.626 27.3714 302.627 33.3726C308.629 39.3737 312 47.5131 312 56V88H200C191.513 88 183.374 84.6286 177.373 78.6274C171.371 72.6263 168 64.4869 168 56V24Z" fill="#596063"/>
<path d="M480 448H472.674C473.355 434.777 473.124 409.443 464 387.776V354.8C464.008 340.992 460.038 327.475 452.564 315.865L406.326 243.939C400.809 235.36 393.533 228.051 384.98 222.495C376.426 216.939 366.791 213.263 356.71 211.71L288 201.136V191.2C297.029 189.344 305.142 184.431 310.971 177.291C316.8 170.15 319.989 161.218 320 152V56C319.988 45.395 315.77 35.2278 308.271 27.7289C300.772 20.23 290.605 16.0119 280 16H168C165.878 16 163.843 16.8429 162.343 18.3431C160.843 19.8434 160 21.8783 160 24V56C160.011 65.2178 163.2 74.15 169.029 81.2907C174.858 88.4314 182.971 93.3439 192 95.2V152C192.011 161.218 195.2 170.15 201.029 177.291C206.858 184.431 214.971 189.344 224 191.2V201.141L203.1 204.357C201.51 198.494 197.747 193.456 192.575 190.268C187.404 187.08 181.213 185.981 175.26 187.194L166.883 188.869C161.287 189.991 156.274 193.069 152.741 197.551C149.208 202.033 147.385 207.626 147.6 213.329C130.307 217.966 115.36 228.878 105.674 243.936L59.436 315.862C51.9616 327.473 47.9912 340.991 48 354.8V387.779C38.876 409.446 38.645 434.779 39.326 448.003H32C29.8783 448.003 27.8434 448.846 26.3431 450.346C24.8429 451.846 24 453.881 24 456.003V488.003C24 490.125 24.8429 492.16 26.3431 493.66C27.8434 495.16 29.8783 496.003 32 496.003H480C482.122 496.003 484.157 495.16 485.657 493.66C487.157 492.16 488 490.125 488 488.003V456C488 453.878 487.157 451.843 485.657 450.343C484.157 448.843 482.122 448 480 448ZM271.67 448C299.793 413.66 342.151 398.012 374.32 390.9C397.156 385.925 420.484 383.565 443.854 383.864C448.69 390.995 451.793 399.529 453.754 408.164C432.312 408.789 410.981 411.491 390.06 416.234C389.034 416.483 388.068 416.932 387.217 417.555C386.365 418.179 385.646 418.965 385.099 419.868C384.553 420.771 384.191 421.773 384.034 422.817C383.876 423.861 383.927 424.925 384.183 425.949C384.439 426.973 384.895 427.936 385.525 428.783C386.155 429.63 386.946 430.344 387.853 430.883C388.76 431.423 389.765 431.778 390.809 431.928C391.854 432.078 392.918 432.019 393.94 431.756C414.405 427.195 435.264 424.632 456.224 424.101C456.928 432.046 457.062 440.031 456.624 447.995L271.67 448ZM392.87 252.588L439.108 324.515C444.921 333.546 448.008 344.06 448 354.8V367.992C431.964 367.455 415.911 368.224 400 370.292V352C400 350.333 399.479 348.707 398.51 347.35L358.51 291.35C357.899 290.495 357.126 289.769 356.235 289.213C355.344 288.657 354.352 288.281 353.315 288.109C352.279 287.936 351.219 287.969 350.195 288.206C349.172 288.443 348.205 288.879 347.35 289.49C346.495 290.101 345.769 290.874 345.213 291.765C344.657 292.656 344.281 293.648 344.109 294.685C343.936 295.721 343.969 296.781 344.206 297.805C344.443 298.828 344.879 299.795 345.49 300.65L384 354.564V372.684C379.745 373.428 375.505 374.261 371.285 375.184C320.702 386.284 281.285 409.09 256.431 441.45C245.164 425.1 229.716 411.192 210.522 400H224C230.363 399.993 236.463 397.462 240.962 392.962C245.462 388.463 247.993 382.363 248 376V344C247.993 338.78 246.286 333.704 243.138 329.539C239.99 325.375 235.572 322.348 230.552 320.917L206.8 219.971L224.039 217.319C224.383 223.444 227.056 229.205 231.511 233.422C235.966 237.639 241.866 239.993 248 240H264C270.135 239.993 276.034 237.639 280.489 233.422C284.945 229.205 287.618 223.444 287.962 217.319L354.276 227.519C362.117 228.727 369.611 231.587 376.264 235.908C382.917 240.23 388.576 245.915 392.867 252.588H392.87ZM213.9 320H190.246L172.962 250.864L196.62 246.564L213.9 320ZM184 336H224C226.121 336.002 228.154 336.846 229.654 338.346C231.154 339.846 231.998 341.879 232 344V376C231.998 378.121 231.154 380.154 229.654 381.654C228.154 383.154 226.121 383.998 224 384H184V336ZM272 192V216C271.998 218.121 271.154 220.154 269.654 221.654C268.154 223.154 266.121 223.998 264 224H248C245.879 223.998 243.846 223.154 242.346 221.654C240.846 220.154 240.002 218.121 240 216V192H272ZM176 56V32H280C286.363 32.0071 292.463 34.538 296.963 39.0373C301.462 43.5367 303.993 49.637 304 56V80H200C193.637 79.9929 187.537 77.462 183.037 72.9627C178.538 68.4633 176.007 62.363 176 56ZM208 152V96H304V152C303.993 158.363 301.462 164.463 296.962 168.962C292.463 173.462 286.363 175.993 280 176H232C225.637 175.993 219.537 173.462 215.038 168.962C210.538 164.463 208.007 158.363 208 152ZM164.832 208.121C165.407 207.203 166.165 206.413 167.058 205.8C167.95 205.186 168.959 204.762 170.022 204.554L178.4 202.878C180.435 202.464 182.552 202.86 184.3 203.984C186.047 205.107 187.287 206.867 187.756 208.891L192.95 230.966L169.073 235.308L163.831 214.339C163.564 213.289 163.515 212.196 163.687 211.126C163.859 210.057 164.249 209.034 164.832 208.121ZM72.9 324.515L119.138 252.587C126.529 241.104 137.859 232.716 151 229L173.75 320H142.948L150.656 308.438C151.251 307.564 151.667 306.581 151.88 305.546C152.093 304.51 152.098 303.442 151.896 302.405C151.694 301.367 151.288 300.38 150.702 299.5C150.116 298.62 149.361 297.865 148.482 297.278C147.602 296.692 146.615 296.286 145.577 296.083C144.54 295.88 143.472 295.885 142.436 296.098C141.401 296.31 140.417 296.726 139.543 297.321C138.669 297.915 137.922 298.678 137.344 299.563L121.344 323.563C120.541 324.768 120.08 326.168 120.01 327.614C119.94 329.06 120.264 330.498 120.947 331.775C121.631 333.051 122.647 334.119 123.889 334.863C125.131 335.607 126.552 336 128 336H168V381.555C160.249 379.125 152.141 376.999 143.676 375.178C117.499 369.612 90.7503 367.198 64 367.99V354.8C63.9942 344.059 67.0842 333.545 72.9 324.515ZM55.777 424.106C76.7368 424.637 97.5955 427.2 118.06 431.761C119.082 432.024 120.146 432.083 121.191 431.933C122.235 431.783 123.24 431.428 124.147 430.888C125.054 430.349 125.845 429.635 126.475 428.788C127.105 427.941 127.561 426.978 127.817 425.954C128.073 424.93 128.124 423.866 127.966 422.822C127.809 421.778 127.447 420.776 126.901 419.873C126.354 418.97 125.635 418.184 124.783 417.56C123.932 416.937 122.966 416.488 121.94 416.239C101.02 411.496 79.689 408.794 58.247 408.169C60.207 399.531 63.309 391 68.147 383.869C92.5124 383.527 116.841 385.884 140.687 390.898C196.275 402.886 225.787 426.716 241.433 447.998H55.375C54.9372 440.035 55.0715 432.05 55.777 424.106ZM472 480H40V464H472V480Z" fill="black"/>
</svg>
