<svg width="512" height="512" viewBox="0 0 512 512" fill="none" xmlns="http://www.w3.org/2000/svg">
<g clip-path="url(#clip0_3_29)">
<path d="M499.751 495.908V395.743C499.75 390.337 498.447 385.012 495.951 380.217C493.455 375.423 489.84 371.3 485.412 368.199L422.214 323.954C417.974 320.987 412.924 319.397 407.749 319.398H356.863L357.704 463.212C358.015 478.199 367.807 491.328 382.079 495.909H499.751V495.908Z" fill="#FEC9A3"/>
<path d="M449.321 495.909H390.484C371.917 495.909 356.863 480.855 356.863 462.288V428.667H415.7L449.321 495.909Z" fill="#FABD91"/>
<path d="M230.784 67.2415C224.996 67.2506 219.272 68.4583 213.973 70.7885V8.405H62.6796C34.8248 8.405 12.248 30.9818 12.248 58.8366V210.13H74.6315C65.3016 188.882 74.9595 164.087 96.2163 154.757C117.465 145.427 142.26 155.085 151.59 176.342C153.93 181.668 155.139 187.423 155.139 193.241C155.139 199.059 153.93 204.813 151.59 210.139H213.973V147.756C235.222 157.086 260.017 147.428 269.347 126.171C278.677 104.914 269.019 80.1274 247.762 70.7975C242.413 68.4393 236.63 67.228 230.784 67.2415Z" fill="#88B337"/>
<path d="M415.699 58.8365C415.699 30.9818 393.122 8.40494 365.267 8.40494H213.973V70.7884C235.222 61.4585 260.017 71.1164 269.347 92.3733C278.677 113.622 269.019 138.417 247.762 147.747C242.436 150.087 236.681 151.296 230.863 151.296C225.045 151.296 219.291 150.087 213.964 147.747V210.13H276.348C267.018 231.379 276.676 256.174 297.933 265.504C319.181 274.834 343.976 265.176 353.306 243.919C355.647 238.593 356.855 232.838 356.855 227.02C356.855 221.202 355.647 215.448 353.306 210.121H415.69V58.8365H415.699Z" fill="#E8594A"/>
<path d="M415.699 63.6355C367.654 130.474 280.921 168.441 213.973 188.874V210.13H276.357C267.027 231.379 276.685 256.174 297.942 265.504C319.191 274.834 343.985 265.176 353.315 243.919C355.656 238.593 356.864 232.838 356.864 227.02C356.864 221.202 355.656 215.448 353.315 210.121H415.699V63.6355Z" fill="#D65245"/>
<path d="M197.163 277.373C202.952 277.382 208.676 278.59 213.974 280.92V210.131H151.591C160.921 188.883 151.263 164.088 130.006 154.758C108.749 145.428 83.9624 155.086 74.6324 176.343C72.292 181.669 71.0835 187.424 71.0835 193.241C71.0835 199.059 72.292 204.814 74.6324 210.14H12.2479V361.434C12.2479 389.289 34.8247 411.866 62.6795 411.866H213.973V357.887C192.725 367.217 167.93 357.559 158.6 336.302C149.27 315.054 158.928 290.259 180.185 280.929C185.534 278.571 191.318 277.359 197.163 277.373Z" fill="#FDB62F"/>
<path d="M12.2479 361.425C12.2479 389.28 34.8247 411.857 62.6795 411.857H213.973V357.878C192.826 367.191 168.132 357.601 158.818 336.453C156.656 331.541 155.457 326.26 155.288 320.896C110.226 340.991 61.5797 351.811 12.2479 352.709V361.425Z" fill="#FFA719"/>
<path d="M437.679 385.8L384.499 243.752L326.091 265.749C342.372 282.333 342.12 308.977 325.536 325.249C308.953 341.522 282.309 341.278 266.036 324.694C261.936 320.518 258.753 315.532 256.689 310.056C254.625 304.579 253.726 298.732 254.05 292.889L195.65 314.886L220.53 381.362C214.752 381.035 208.969 381.917 203.551 383.951C181.85 392.373 171.091 416.79 179.513 438.493C187.792 459.816 211.57 470.651 233.096 462.884C238.521 460.839 243.459 457.684 247.595 453.621L266.557 504.313L408.202 450.965C434.317 441.082 447.504 411.932 437.679 385.8Z" fill="#4398D1"/>
<path d="M410.253 312.549C352.256 399.291 243.535 429.583 179.858 440.014C188.793 461.27 213.268 471.255 234.525 462.321C239.393 460.276 243.829 457.324 247.595 453.622L266.557 504.314L408.202 450.966C434.3 441.082 447.479 411.95 437.679 385.826L410.253 312.549Z" fill="#3E8FC9"/>
<path d="M230.784 67.2415C224.996 67.2506 219.272 68.4583 213.973 70.7885V58.5925C151.036 116.53 65.7645 148.529 12.2479 164.121V210.131H74.6314C65.3015 188.883 74.9594 164.088 96.2163 154.758C117.465 145.428 142.26 155.086 151.59 176.343C153.93 181.669 155.139 187.424 155.139 193.241C155.139 199.059 153.93 204.814 151.59 210.14H213.973V147.757C235.222 157.087 260.017 147.429 269.347 126.172C278.677 104.915 269.019 80.1284 247.762 70.7985C242.413 68.4395 236.63 67.2278 230.784 67.2415Z" fill="#80A834"/>
<path d="M399.04 386.792C390.996 378.588 377.825 378.454 369.621 386.498C361.417 394.542 361.283 407.713 369.327 415.917C369.428 416.018 369.52 416.119 369.621 416.211L398.888 445.478C398.888 473.332 421.465 495.909 449.32 495.909H499.751V487.504L399.04 386.792Z" fill="#FEC9A3"/>
<path d="M197.163 268.27C169.309 268.262 146.724 290.83 146.715 318.685C146.707 338.747 158.6 356.911 176.991 364.93L183.715 349.532C166.686 342.127 158.886 322.316 166.299 305.288C168.913 299.277 173.227 294.162 178.711 290.572C184.195 286.982 190.608 285.074 197.162 285.082C201.793 285.082 206.374 286.049 210.61 287.923C211.889 288.481 213.287 288.712 214.677 288.595C216.068 288.478 217.407 288.016 218.575 287.252C219.742 286.488 220.701 285.446 221.365 284.219C222.029 282.991 222.378 281.618 222.378 280.223V218.537H265.119C264.642 221.313 264.403 224.125 264.405 226.942C264.455 250.889 281.3 271.524 304.75 276.365L308.112 259.899C292.478 256.663 281.249 242.912 281.215 226.942C281.215 222.311 282.182 217.73 284.056 213.494C284.614 212.215 284.845 210.818 284.728 209.427C284.611 208.037 284.149 206.698 283.385 205.53C282.621 204.362 281.579 203.403 280.352 202.739C279.124 202.075 277.751 201.727 276.356 201.726H222.377V158.986C225.151 159.465 227.967 159.7 230.782 159.7C258.637 159.7 281.214 137.123 281.214 109.268C281.214 81.4134 258.637 58.8365 230.782 58.8365C227.966 58.8365 225.15 59.0715 222.377 59.5505V16.8109H365.266C388.465 16.8359 407.267 35.6387 407.292 58.8365V201.725H353.313C352.209 201.726 351.116 201.943 350.096 202.366C349.076 202.79 348.15 203.41 347.37 204.191C346.59 204.973 345.972 205.9 345.551 206.921C345.13 207.942 344.914 209.035 344.916 210.139C344.916 211.291 345.151 212.434 345.614 213.493C347.488 217.729 348.456 222.31 348.455 226.941H365.266C365.266 224.125 365.031 221.309 364.552 218.536H415.698C417.927 218.535 420.064 217.65 421.64 216.074C423.216 214.498 424.102 212.36 424.103 210.131V58.8365C424.063 26.3588 397.746 0.0419997 365.268 0H62.6795C30.2018 0.0419997 3.885 26.3588 3.843 58.8365V360.727C3.885 393.205 30.2018 419.522 62.6795 419.564H155.137V402.753H62.6795C39.4807 402.728 20.6789 383.925 20.6539 360.727V218.536H74.6324C79.6164 218.175 83.3574 213.837 82.9954 208.853C82.9264 207.893 82.7022 206.951 82.3314 206.062C74.8594 189.068 82.5834 169.231 99.5872 161.759C116.583 154.287 136.419 162.011 143.891 179.015C145.766 183.278 146.734 187.885 146.734 192.543C146.734 197.201 145.766 201.808 143.891 206.071C142.895 208.157 142.767 210.553 143.536 212.733C144.305 214.912 145.908 216.698 147.993 217.696C149.117 218.233 150.344 218.523 151.59 218.545H205.568V268.977C202.793 268.497 199.98 268.261 197.163 268.27ZM62.6795 16.8109H205.568V70.7894C205.569 71.8935 205.786 72.9868 206.209 74.0066C206.633 75.0264 207.253 75.9528 208.034 76.7327C208.816 77.5126 209.743 78.1308 210.764 78.5518C211.785 78.9729 212.878 79.1885 213.982 79.1864C215.136 79.1874 216.278 78.9497 217.336 78.4884C221.572 76.6148 226.153 75.6472 230.784 75.6474C249.351 75.6474 264.405 90.7013 264.405 109.268C264.405 127.835 249.351 142.889 230.784 142.889C226.153 142.889 221.572 141.921 217.336 140.048C216.057 139.49 214.66 139.259 213.269 139.376C211.879 139.493 210.539 139.954 209.372 140.718C208.204 141.482 207.245 142.525 206.581 143.752C205.917 144.979 205.569 146.353 205.568 147.748V201.028H162.887C163.307 198.481 163.526 195.901 163.543 193.32V192.622C163.543 164.768 140.966 142.191 113.111 142.191C85.2564 142.191 62.6795 164.768 62.6795 192.622V193.32C62.6965 195.9 62.9145 198.481 63.3355 201.028H20.6539V58.8365C20.6869 35.6377 39.4817 16.8359 62.6795 16.8109Z" fill="black"/>
<path d="M490.178 361.273L419.516 312.616L392.375 240.104C391.99 239.069 391.406 238.121 390.654 237.312C389.903 236.503 388.999 235.851 387.995 235.392C386.991 234.933 385.907 234.676 384.803 234.637C383.7 234.597 382.6 234.776 381.566 235.162C381.406 235.221 381.255 235.28 381.104 235.347L326.47 259.512C324.499 260.384 322.938 261.979 322.109 263.969C321.28 265.958 321.246 268.19 322.015 270.204C322.923 272.557 323.772 274.339 324.671 276.189C325.57 278.039 326.403 279.77 327.42 282.501C333.943 299.934 325.159 319.367 307.761 325.981C290.37 332.487 270.996 323.661 264.491 306.272C262.861 301.909 262.154 297.255 262.415 292.605C262.489 291.209 262.213 289.818 261.614 288.556C261.014 287.293 260.109 286.201 258.981 285.376C257.853 284.552 256.537 284.022 255.152 283.834C253.768 283.646 252.358 283.807 251.051 284.301L192.651 306.298C190.567 307.082 188.879 308.662 187.958 310.691C187.038 312.719 186.96 315.03 187.743 317.116L208.705 373.111C205.926 373.617 203.197 374.371 200.552 375.364C174.396 385.114 161.099 414.213 170.84 440.371C180.59 466.527 209.688 479.824 235.846 470.083C238.536 469.083 241.141 467.847 243.629 466.401L258.658 506.545C259.441 508.632 261.02 510.322 263.048 511.246C265.076 512.169 267.388 512.25 269.476 511.47C269.484 511.47 269.484 511.47 269.493 511.462L352.772 480.085C355.361 485.649 359.056 490.626 363.633 494.713C368.21 498.8 373.572 501.91 379.392 503.855L384.704 487.885C377.777 485.549 372.02 480.629 368.633 474.151L393.975 464.611C402.296 488.028 424.478 503.654 449.323 503.62V486.809C426.176 486.666 407.44 467.931 407.298 444.784C407.299 443.68 407.082 442.586 406.659 441.566C406.236 440.547 405.616 439.62 404.835 438.841L375.568 409.574C371.231 405.195 370.735 398.303 374.416 393.36C375.474 391.932 376.831 390.752 378.391 389.902C379.952 389.051 381.679 388.551 383.452 388.435C385.227 388.284 387.013 388.529 388.682 389.153C390.351 389.777 391.86 390.763 393.101 392.041L451.786 450.726L463.671 438.842L446.307 421.477C450.587 408.683 450.322 394.804 445.559 382.182L429.807 340.113L480.599 375.087C483.917 377.416 486.626 380.509 488.497 384.104C490.368 387.7 491.346 391.693 491.349 395.747V504.317H508.16V395.743C508.153 388.975 506.515 382.309 503.385 376.309C500.255 370.308 495.725 365.151 490.178 361.273ZM432.266 407.427L404.982 380.152C393.719 368.603 375.227 368.368 363.678 379.631C352.129 390.894 351.894 409.386 363.157 420.935C363.325 421.112 363.502 421.288 363.678 421.456L390.264 448.042L271.481 492.782L255.461 449.974C254.97 448.665 254.16 447.498 253.104 446.58C252.048 445.662 250.78 445.023 249.414 444.719C248.049 444.415 246.629 444.457 245.284 444.84C243.938 445.224 242.71 445.937 241.71 446.916C228.211 459.666 206.937 459.061 194.178 445.563C181.428 432.064 182.033 410.79 195.531 398.031C198.705 395.03 202.434 392.678 206.508 391.105C209.184 390.114 211.98 389.481 214.821 389.222C216.57 389.012 218.333 388.953 220.091 389.045C221.484 389.118 222.874 388.844 224.134 388.246C225.394 387.649 226.486 386.747 227.311 385.622C228.136 384.497 228.667 383.184 228.858 381.803C229.049 380.421 228.893 379.013 228.404 377.707L206.449 319.09L246.475 304.019C251.728 331.369 278.163 349.289 305.514 344.036C308.309 343.499 311.053 342.726 313.718 341.725C339.782 331.84 352.953 302.751 343.194 276.635C342.545 274.886 341.83 273.162 341.051 271.466L379.715 254.344L429.811 388.063C432.139 394.235 432.98 400.869 432.266 407.427Z" fill="black"/>
</g>
<defs>
<clipPath id="clip0_3_29">
<rect width="512" height="512" fill="white"/>
</clipPath>
</defs>
</svg>
